<svg xmlns="http://www.w3.org/2000/svg" x="0px" y="0px"
width="48" height="48"
viewBox="0 0 172 172"
style=" fill:#000000;"><g fill="none" fill-rule="nonzero" stroke="none" stroke-width="1" stroke-linecap="butt" stroke-linejoin="miter" stroke-miterlimit="10" stroke-dasharray="" stroke-dashoffset="0" font-family="none" font-weight="none" font-size="none" text-anchor="none" style="mix-blend-mode: normal"><path d="M0,172v-172h172v172z" fill="none"></path><g fill="#d3b2f0"><path d="M60.91667,46.58333c0,-13.85317 11.23375,-25.08333 25.08333,-25.08333c13.84958,0 25.08333,11.23017 25.08333,25.08333c0,13.84958 -25.08333,43 -25.08333,43c0,0 -25.08333,-29.15042 -25.08333,-43z"></path><path d="M125.85025,114.66667c13.61667,0 24.64975,-11.23733 24.64975,-25.08333c0,-13.85317 -11.03308,-25.08333 -24.64975,-25.08333c-13.61308,0 -43.43358,25.08333 -43.43358,25.08333c0,0 29.8205,25.08333 43.43358,25.08333z"></path><path d="M46.14975,114.66667c-13.61667,0 -24.64975,-11.23733 -24.64975,-25.08333c0,-13.85317 11.03308,-25.08333 24.64975,-25.08333c13.61308,0 43.43358,25.08333 43.43358,25.08333c0,0 -29.8205,25.08333 -43.43358,25.08333z"></path><path d="M89.58333,75.25h-3.58333h-3.58333c3.58333,53.75 -21.5,75.25 -21.5,75.25h50.16667c0,0 -25.08333,-21.5 -21.5,-75.25z"></path></g></g></svg>