<svg xmlns="http://www.w3.org/2000/svg" x="0px" y="0px"
width="16" height="16"
viewBox="0 0 172 172"
style=" fill:#000000;"><g fill="none" fill-rule="nonzero" stroke="none" stroke-width="1" stroke-linecap="butt" stroke-linejoin="miter" stroke-miterlimit="10" stroke-dasharray="" stroke-dashoffset="0" font-family="none" font-weight="none" font-size="none" text-anchor="none" style="mix-blend-mode: normal"><path d="M0,172v-172h172v172z" fill="none"></path><g fill="#d3b2f0"><path d="M54.72422,22.93333c-20.726,0 -37.52422,16.79822 -37.52422,37.52422c0,36.07642 41.84746,70.54796 61.39817,85.89922c0.01862,0.01499 0.03728,0.02992 0.05599,0.04479c0.13396,0.10517 0.31608,0.25498 0.44792,0.35833l0.0112,-0.0112c1.98358,1.4988 4.40056,2.31232 6.88672,2.31797c2.48999,-0.00322 4.91127,-0.81686 6.89792,-2.31797v0.0112c0.03859,-0.03025 0.09561,-0.07038 0.13437,-0.10078c0.02948,-0.02312 0.0712,-0.05517 0.10079,-0.07839c0.03755,-0.03335 0.07487,-0.06694 0.11198,-0.10078c19.49011,-15.2961 61.55495,-49.85989 61.55495,-86.02239c0,-20.726 -16.79822,-37.52422 -37.52422,-37.52422c-19.80867,0 -31.27578,17.2 -31.27578,17.2c0,0 -11.46711,-17.2 -31.27578,-17.2z"></path></g></g></svg>