<svg xmlns="http://www.w3.org/2000/svg" x="0px" y="0px"
width="48" height="48"
viewBox="0 0 172 172"
style=" fill:#000000;"><g fill="none" fill-rule="nonzero" stroke="none" stroke-width="1" stroke-linecap="butt" stroke-linejoin="miter" stroke-miterlimit="10" stroke-dasharray="" stroke-dashoffset="0" font-family="none" font-weight="none" font-size="none" text-anchor="none" style="mix-blend-mode: normal"><path d="M0,172v-172h172v172z" fill="none"></path><g fill="#d3b2f0"><path d="M89.58333,75.25h-3.58333h-3.58333c3.58333,53.75 -21.5,75.25 -21.5,75.25h50.16667c0,0 -25.08333,-21.5 -21.5,-75.25z"></path><path d="M58.31158,121.83333c11.57058,0 21.73292,-5.73333 27.68842,-14.41217c5.94833,8.67883 16.11783,14.41217 27.68842,14.41217c18.35025,0 33.22825,-14.41575 33.22825,-32.19267c0,-32.04217 -51.77558,-47.47917 -60.91667,-68.14067c-9.14108,20.6615 -60.91667,35.82617 -60.91667,68.14067c0,17.77692 14.878,32.19267 33.22825,32.19267"></path></g></g></svg>